<!--?xml version="1.0" encoding="utf-8"?-->
<!-- Generator: Adobe Illustrator 19.1.1, SVG Export Plug-In . SVG Version: 6.00 Build 0)  -->
<svg version="1.1" id="_x31_0" xmlns="http://www.w3.org/2000/svg" xmlns:xlink="http://www.w3.org/1999/xlink" x="0px" y="0px" viewBox="0 0 512 512" style="width: 256px; height: 256px; opacity: 1;" xml:space="preserve">
<style type="text/css">
	.st0{fill:#374149;}
</style>
<g>
	<path class="st0" d="M235.023,463.215h0.161l0.066-50.465h39.59l0.058,50.21v0.094h0.004v0.161h95.461l-2.672-364.582
		c-0.019-2.73-2.234-4.946-4.945-4.946h-70.664l-0.051-22.324h-26.882l-3.325-64.93C261.637,2.828,258.664,0,255.055,0
		c-3.61,0-6.586,2.828-6.77,6.434l-3.332,64.93H218.07l-0.054,22.324h-70.707c-2.711,0-4.926,2.215-4.95,4.946l-2.702,362.836
		l-0.012,1.586v0.161h95.09H235.023z M187.668,137.82c0.008-1.699,1.39-3.07,3.094-3.07h128.524c1.703,0,3.086,1.37,3.094,3.07
		l0.102,20.309c0.008,1.715-1.383,3.11-3.102,3.11H190.664c-1.718,0-3.109-1.394-3.102-3.11L187.668,137.82z M187.34,210.703
		c0.012-1.695,1.39-3.062,3.094-3.062h129.172c1.703,0,3.082,1.367,3.09,3.062l0.102,20.578c0.012,1.71-1.378,3.102-3.094,3.102
		H190.336c-1.718,0-3.11-1.391-3.102-3.102L187.34,210.703z M187.012,284.285c0.008-1.691,1.386-3.054,3.086-3.054H319.93
		c1.699,0,3.078,1.363,3.086,3.054l0.102,20.852c0.011,1.703-1.375,3.09-3.09,3.09H190c-1.714,0-3.102-1.386-3.094-3.09
		L187.012,284.285z M186.574,379.703l0.106-21.129c0.008-1.684,1.386-3.047,3.082-3.047h130.496c1.696,0,3.07,1.363,3.082,3.047
		l0.106,21.129c0.008,1.703-1.379,3.086-3.09,3.086H189.66C187.95,382.789,186.562,381.406,186.574,379.703z" style="fill: rgb(75, 75, 75);"></path>
	<polygon class="st0" points="501.16,512 500.734,484.844 11.266,484.844 10.852,511.348 10.84,511.844 10.844,511.844 10.84,512 	
		" style="fill: rgb(75, 75, 75);"></polygon>
	<path class="st0" d="M385.859,148.649l0.176,19.992l0.172,19.011l0.183,20.969h60.641c2.309,0,4.184,1.84,4.215,4.141l0.281,21.301
		c0.031,2.352-1.878,4.282-4.242,4.282h-60.102l-0.367-0.004v0.004h-0.16l0.39,43.874h60.957c2.305,0,4.18,1.836,4.207,4.13
		l0.285,21.613c0.031,2.344-1.878,4.266-4.234,4.266h-60.054h-0.73h-0.16l0.394,44.301h61.274c2.305,0,4.172,1.832,4.203,4.118
		l0.289,21.926c0.031,2.336-1.875,4.254-4.23,4.254h-60.551l-0.554-0.004v0.004h-0.16l0.23,25.926h9.379l0.445,46.519h95.355
		l-4.422-283.129c-0.066-4.238-3.574-7.5-8.07-7.5h-67.945l-0.242-22.594h-25.106l-1.77-0.012l0.004,0.012h-0.16L385.859,148.649z" style="fill: rgb(75, 75, 75);"></path>
	<path class="st0" d="M114.41,412.75h9.379l0.226-25.539l0.004-0.227v-0.16H62.754c-2.356,0-4.262-1.918-4.231-4.254l0.29-21.926
		c0.027-2.286,1.898-4.118,4.199-4.118h61.278l0.39-43.754l0.004-0.387v-0.16H63.738c-2.359,0-4.266-1.922-4.234-4.266l0.286-21.613
		c0.027-2.294,1.898-4.13,4.206-4.13h60.958l0.386-43.461l0.004-0.258h-0.004l0.004-0.156H64.715c-2.363,0-4.274-1.93-4.242-4.282
		l0.282-21.301c0.027-2.301,1.902-4.141,4.21-4.141h60.641l0.187-20.969l0.172-19.011l0.176-19.992l0.156-2.286l0.024-0.156h-0.012
		l0.012-0.16H99.29l-0.242,22.594H31.102c-4.5,0-8.004,3.262-8.07,7.5l-4.34,277.797l-0.082,5.172v0.16h95.355L114.41,412.75z" style="fill: rgb(75, 75, 75);"></path>
	<path class="st0" d="M235.023,463.215h0.161l0.066-50.465h39.59l0.058,50.21v0.094h0.004v0.161h95.461l-2.672-364.582
		c-0.019-2.73-2.234-4.946-4.945-4.946h-70.664l-0.051-22.324h-26.882l-3.325-64.93C261.637,2.828,258.664,0,255.055,0
		c-3.61,0-6.586,2.828-6.77,6.434l-3.332,64.93H218.07l-0.054,22.324h-70.707c-2.711,0-4.926,2.215-4.95,4.946l-2.702,362.836
		l-0.012,1.586v0.161h95.09H235.023z M187.668,137.82c0.008-1.699,1.39-3.07,3.094-3.07h128.524c1.703,0,3.086,1.37,3.094,3.07
		l0.102,20.309c0.008,1.715-1.383,3.11-3.102,3.11H190.664c-1.718,0-3.109-1.394-3.102-3.11L187.668,137.82z M187.34,210.703
		c0.012-1.695,1.39-3.062,3.094-3.062h129.172c1.703,0,3.082,1.367,3.09,3.062l0.102,20.578c0.012,1.71-1.378,3.102-3.094,3.102
		H190.336c-1.718,0-3.11-1.391-3.102-3.102L187.34,210.703z M187.012,284.285c0.008-1.691,1.386-3.054,3.086-3.054H319.93
		c1.699,0,3.078,1.363,3.086,3.054l0.102,20.852c0.011,1.703-1.375,3.09-3.09,3.09H190c-1.714,0-3.102-1.386-3.094-3.09
		L187.012,284.285z M186.574,379.703l0.106-21.129c0.008-1.684,1.386-3.047,3.082-3.047h130.496c1.696,0,3.07,1.363,3.082,3.047
		l0.106,21.129c0.008,1.703-1.379,3.086-3.09,3.086H189.66C187.95,382.789,186.562,381.406,186.574,379.703z" style="fill: rgb(75, 75, 75);"></path>
	<polygon class="st0" points="501.16,512 500.734,484.844 11.266,484.844 10.852,511.348 10.84,511.844 10.844,511.844 10.84,512 	
		" style="fill: rgb(75, 75, 75);"></polygon>
	<path class="st0" d="M385.859,148.649l0.176,19.992l0.172,19.011l0.183,20.969h60.641c2.309,0,4.184,1.84,4.215,4.141l0.281,21.301
		c0.031,2.352-1.878,4.282-4.242,4.282h-60.102l-0.367-0.004v0.004h-0.16l0.39,43.874h60.957c2.305,0,4.18,1.836,4.207,4.13
		l0.285,21.613c0.031,2.344-1.878,4.266-4.234,4.266h-60.054h-0.73h-0.16l0.394,44.301h61.274c2.305,0,4.172,1.832,4.203,4.118
		l0.289,21.926c0.031,2.336-1.875,4.254-4.23,4.254h-60.551l-0.554-0.004v0.004h-0.16l0.23,25.926h9.379l0.445,46.519h95.355
		l-4.422-283.129c-0.066-4.238-3.574-7.5-8.07-7.5h-67.945l-0.242-22.594h-25.106l-1.77-0.012l0.004,0.012h-0.16L385.859,148.649z" style="fill: rgb(75, 75, 75);"></path>
	<path class="st0" d="M114.41,412.75h9.379l0.226-25.539l0.004-0.227v-0.16H62.754c-2.356,0-4.262-1.918-4.231-4.254l0.29-21.926
		c0.027-2.286,1.898-4.118,4.199-4.118h61.278l0.39-43.754l0.004-0.387v-0.16H63.738c-2.359,0-4.266-1.922-4.234-4.266l0.286-21.613
		c0.027-2.294,1.898-4.13,4.206-4.13h60.958l0.386-43.461l0.004-0.258h-0.004l0.004-0.156H64.715c-2.363,0-4.274-1.93-4.242-4.282
		l0.282-21.301c0.027-2.301,1.902-4.141,4.21-4.141h60.641l0.187-20.969l0.172-19.011l0.176-19.992l0.156-2.286l0.024-0.156h-0.012
		l0.012-0.16H99.29l-0.242,22.594H31.102c-4.5,0-8.004,3.262-8.07,7.5l-4.34,277.797l-0.082,5.172v0.16h95.355L114.41,412.75z" style="fill: rgb(75, 75, 75);"></path>
</g>
</svg>
