<?xml version="1.0" encoding="UTF-8"?><svg id="_レイヤー_2" xmlns="http://www.w3.org/2000/svg" viewBox="0 0 1450.37 207.95"><defs><style>.cls-1{fill:#0e357f;}</style></defs><g id="_レイヤー_1-2"><path class="cls-1" d="M127.9,80.87h-22.82c-1.72,0-3.12,1.4-3.12,3.12v77.04l-4.3-4.94L31.02,81.9c-.59-.66-1.44-1.03-2.32-1.03H3.12C1.4,80.87,0,82.27,0,83.99v118.18c0,1.72,1.4,3.12,3.12,3.12h22.82c1.72,0,3.12-1.4,3.12-3.12v-77.99l2.92,3.42,69.05,76.66c.59.66,1.43,1.03,2.32,1.03h24.55c1.72,0,3.12-1.4,3.12-3.12v-118.18c0-1.72-1.4-3.12-3.12-3.12h0Z"/><path class="cls-1" d="M305.36,80.87h-138.89c-1.72,0-3.12,1.4-3.12,3.12v22.45c0,1.72,1.4,3.12,3.12,3.12h52.54v92.62c0,1.72,1.4,3.12,3.12,3.12h27.57c1.72,0,3.12-1.4,3.12-3.12v-92.62h52.54c1.72,0,3.12-1.4,3.12-3.12v-22.45c0-1.72-1.4-3.12-3.12-3.12h0Z"/><path class="cls-1" d="M433.65,131.4c-11.4-2.28-21.46-3.8-30.58-5.13-24.5-3.42-29.25-4.37-29.25-11.4s8.36-9.69,33.05-9.69c18,0,34.16,2.01,53.66,7.12,1.97.52,3.9-.98,3.9-3.02v-20.36c0-1.39-.92-2.63-2.26-3.01-17.68-5.07-35.44-7.7-55.3-7.7-45.21,0-66.1,11.97-66.1,37.99,0,21.47,16.91,33.62,49.77,37.99,9.88,1.33,16.72,2.09,24.88,3.23,19.37,3.04,23.36,5.89,23.36,12.73,0,8.17-7.41,10.83-33.62,10.83-21.14,0-40.29-2.49-59.47-7.79-2-.55-3.97.92-3.97,3v20.36c0,1.36.88,2.58,2.18,2.98,18.05,5.61,38.08,8.42,61.27,8.42,46.92,0,66.67-11.78,66.67-39.7,0-20.9-11.4-31.53-38.18-36.85h-.01Z"/><path class="cls-1" d="M469.12,31.03L236.46.1c-.94-.13-1.89-.13-2.83,0L2.7,31.03c-1.55.21-2.7,1.53-2.7,3.09v15.32c0,1.89,1.66,3.34,3.53,3.09l231.53-31.01,233.24,31.01c1.87.25,3.53-1.21,3.53-3.09v-15.32c0-1.56-1.16-2.89-2.71-3.09h0Z"/><path class="cls-1" d="M602.85,205.89h16.9v-9.07h61.3v8.8h17.73v-118.88h-95.93v119.15h0ZM619.75,180.19v-31.06h61.3v31.06h-61.3ZM681.05,103.37v29.55h-61.3v-29.55h61.3Z"/><path class="cls-1" d="M811.81,135.32c-3.06-4.41-5.76-8.88-8.15-13.4h42.3v-16.77h-52.22v-26.66h-17.46v26.66h-51.81v16.77h42.06c-1.34,2.65-2.78,5.29-4.33,7.9-3.62,6.09-7.7,11.89-12.23,17.39-4.53,5.5-9.41,10.49-14.64,14.98-5.22,4.49-10.68,8.29-16.35,11.41,1.37,1.01,2.77,2.36,4.19,4.05,1.42,1.7,2.86,3.39,4.33,5.08,1.47,1.7,2.66,3.23,3.57,4.6,7.68-4.94,14.87-10.9,21.58-17.85v14.69h23.64v23.36h17.46v-23.36h22.81v-15.82c.07.07.14.15.21.22,6.92,7.19,14.36,13.26,22.33,18.21,1.01-1.56,2.24-3.28,3.71-5.15,1.46-1.88,3-3.69,4.6-5.43s3.09-3.16,4.47-4.26c-7.61-4.03-14.84-9.21-21.71-15.53s-12.99-13.35-18.35-21.1h-.01ZM754.61,167.41c6.44-6.95,12.29-14.64,17.55-23.09,1.43-2.3,2.8-4.62,4.12-6.98v30.07h-21.67ZM793.74,167.41v-30.44c1.41,2.53,2.87,5.03,4.4,7.49,5.2,8.41,11.05,16.06,17.53,22.95h-21.93Z"/><path class="cls-1" d="M916.61,151.74l-2.2-14.84c-4.15,1.14-8.27,2.27-12.37,3.37v-20.69h13.74v-15.12h-13.74v-25.98h-15.12v25.98h-14.84v15.12h14.84v24.71c-6.16,1.59-11.58,2.89-16.22,3.87l3.57,15.8c3.95-1.12,8.16-2.32,12.64-3.61v27.8c0,.92-.16,1.54-.48,1.86s-.89.48-1.72.48c-.82.09-2.34.14-4.53.14s-4.54-.05-7.01-.14c1.01,2.11,1.92,4.65,2.75,7.63.82,2.98,1.33,5.47,1.51,7.49,4.49,0,8.27-.21,11.34-.62s5.66-1.26,7.76-2.54c2.11-1.28,3.55-3.02,4.33-5.22.78-2.2,1.17-5.18,1.17-8.93v-32.32c4.89-1.42,9.76-2.84,14.57-4.24h.01Z"/><path class="cls-1" d="M991.64,82.61h-68.03v47.69h68.03v-47.69ZM975.84,118.62h-37.24v-6.87h37.24v6.87ZM975.84,101.17h-37.24v-6.73h37.24v6.73Z"/><path class="cls-1" d="M987.86,191.46h-13.4c-3.29,0-6.44-.21-9.48-.57v-15.92h26.25v-12.92h-26.25v-11.96h33.67v-13.33h-81.77v13.33h32.57v35.97c-1.24-.78-2.43-1.66-3.57-2.64-3.44-2.98-6.26-7.46-8.47-13.4,1.05-4.43,1.92-9.1,2.56-14.02l-14.98-1.79c-1.01,9.26-3.02,17.64-6.05,25.15-3.02,7.51-7.42,13.52-13.19,18,1.19.73,2.56,1.69,4.12,2.89,1.56,1.19,3.07,2.43,4.54,3.71,1.46,1.28,2.61,2.38,3.44,3.3,6.14-5.68,10.99-12.85,14.57-21.51.02-.04.03-.09.05-.13.71,1.3,1.45,2.51,2.22,3.63,3.07,4.49,6.57,7.92,10.51,10.31,3.94,2.38,8.29,3.99,13.06,4.81,4.76.82,9.98,1.24,15.67,1.24h23.91c.27-1.37.64-2.98,1.1-4.81s.98-3.62,1.58-5.36,1.21-3.16,1.86-4.26c-1.47.09-3.53.16-6.19.21-2.66.05-5.43.07-8.31.07h-.02Z"/><path class="cls-1" d="M1067.78,150.64l-2.2-14.84c-4.09,1.18-8.17,2.33-12.23,3.45v-19.67h12.51v-4.25c.73.8,1.47,1.59,2.2,2.4,1.28,1.42,2.24,2.63,2.89,3.64,1.69-1.49,3.34-3.1,4.95-4.82v34.64h73.25v-11.54h-28.72v-6.05h23.5v-9.34h-23.5v-5.77h23.5v-9.48h-23.5v-5.5h27.35v-11.41h-24.26c1.8-3.19,3.66-6.48,5.57-9.9l-15.94-3.57c-.92,2.93-2.15,6.28-3.71,10.03-.5,1.2-.99,2.33-1.49,3.44h-15.54c1.63-3.35,3.1-6.79,4.38-10.31l-14.16-3.57c-2.11,6.32-5.08,12.3-8.93,17.94-2.43,3.56-5.04,6.74-7.83,9.54v-1.23h-12.51v-25.98h-15.12v25.98h-14.43v15.12h14.43v23.76c-6.36,1.67-11.91,3.05-16.63,4.14l3.57,15.8c4.08-1.14,8.44-2.39,13.06-3.75v30.55c0,.92-.16,1.54-.48,1.86-.32.32-.89.48-1.72.48-.82.09-2.31.12-4.47.07-2.15-.05-4.51-.11-7.08-.21,1.01,2.2,1.92,4.79,2.75,7.76.82,2.98,1.33,5.47,1.51,7.49,4.58.09,8.41-.09,11.48-.55s5.61-1.33,7.63-2.61c2.11-1.28,3.55-3.05,4.33-5.29.78-2.25,1.17-5.24,1.17-9v-35.08c4.85-1.46,9.68-2.92,14.43-4.37h-.01ZM1105.71,139.65h-15.8v-6.05h15.8v6.05ZM1105.71,124.26h-15.8v-5.77h15.8v5.77ZM1105.71,109h-15.8v-5.5h15.8v5.5Z"/><path class="cls-1" d="M1135.67,167.68h-9.42c.82-3.82,1.58-7.53,2.28-11.13h-60.33v13.06h16.38c-1.04,5.43-2.89,10.05-5.59,13.81-3.99,5.54-10.19,9.74-18.62,12.57,1.1.92,2.34,2.11,3.71,3.57,1.37,1.46,2.68,2.98,3.92,4.53,1.24,1.56,2.13,2.84,2.68,3.85,9.89-4.12,17.29-9.85,22.2-17.18,3.75-5.61,6.38-12.66,7.91-21.17h10.82c-.04.16-.07.32-.11.48-1.1,4.72-2.2,8.91-3.3,12.57l14.02,2.06c.44-1.65.9-3.44,1.37-5.36h11.07c-.37,2.79-.76,5.08-1.17,6.87-.82,3.57-1.74,5.91-2.75,7.01-1.01.82-2.61,1.24-4.81,1.24-1.37,0-3.5-.04-6.39-.14-2.89-.09-5.89-.32-9-.69,1.28,1.92,2.34,4.15,3.16,6.67.82,2.52,1.28,4.83,1.37,6.94,3.39.09,6.64.14,9.76.14s5.59-.09,7.42-.27c2.29-.18,4.28-.6,5.98-1.24,1.69-.64,3.28-1.65,4.74-3.02,1.74-1.83,3.16-5.02,4.26-9.55,1.1-4.54,2.01-11.15,2.75-19.86.18-1.1.37-3.02.55-5.77h-14.86Z"/><path class="cls-1" d="M1267.68,163.97c6.92-8.25,12.44-17.96,16.56-29.14l-11.68-6.6-2.89.69h-25.7v-16.08h50.58v-16.35h-50.58v-18.14h-17.18v18.14h-50.16v16.35h50.16v16.08h-43.43v16.08h25.81l-12.34,4.26c6.05,11.09,13.38,20.59,21.99,28.52.46.42.93.82,1.4,1.23-5.24,2.27-10.79,4.25-16.65,5.92-10.17,2.89-21.03,5.11-32.57,6.67,1.1,1.19,2.24,2.75,3.44,4.67,1.19,1.92,2.31,3.89,3.37,5.91,1.05,2.01,1.81,3.8,2.27,5.36,11.91-2.02,23.23-4.86,33.95-8.52,7.45-2.55,14.49-5.6,21.14-9.14,4.46,2.66,9.2,5.05,14.25,7.15,11.77,4.9,25.36,8.5,40.75,10.79.82-1.65,1.83-3.48,3.02-5.5,1.19-2.02,2.45-3.96,3.78-5.84,1.33-1.88,2.59-3.46,3.78-4.74-19-2.13-35.3-6.3-48.94-12.49,5.8-4.49,11.11-9.57,15.89-15.27h-.02ZM1212.97,145.01h47.51c-2.27,4.06-4.88,7.79-7.86,11.2-4.73,5.42-10.21,10.17-16.41,14.26-9.94-6.92-17.69-15.41-23.24-25.46h0Z"/><path class="cls-1" d="M1367.94,97.87c6.14-.09,12.53-.3,19.17-.62s13.26-.76,19.86-1.31,12.99-1.21,19.17-1.99,11.84-1.72,16.97-2.82l-9.21-12.09c-4.21.92-9.09,1.74-14.64,2.47-5.55.74-11.39,1.37-17.52,1.92-6.14.55-12.39.99-18.76,1.31s-12.58.62-18.62.89c.73,1.65,1.47,3.66,2.2,6.05.73,2.38,1.19,4.45,1.37,6.18h.01Z"/><path class="cls-1" d="M1363.81,155.73l-2.06-14.98c-3.87,1.09-7.71,2.16-11.55,3.21v-24.37h12.51v-15.12h-12.51v-25.98h-15.12v25.98h-14.43v15.12h14.43v28.4c-6.17,1.6-11.58,2.95-16.22,4.03l2.47,16.08c4.3-1.26,8.88-2.6,13.74-4.02v26.01c0,.92-.16,1.54-.48,1.86-.32.32-.89.48-1.72.48-.82.09-2.31.12-4.47.07-2.15-.05-4.51-.11-7.08-.21,1.01,2.2,1.92,4.79,2.75,7.76.82,2.98,1.33,5.47,1.51,7.49,4.58.09,8.41-.09,11.48-.55s5.61-1.33,7.63-2.61c2.11-1.28,3.55-3.05,4.33-5.29.78-2.25,1.17-5.24,1.17-9v-30.4c4.57-1.33,9.11-2.65,13.61-3.96h.01Z"/><path class="cls-1" d="M1426.83,187.96c-.99-.39-1.95-.79-2.9-1.21,1.39-1.47,2.73-3.01,4-4.63,5.27-6.69,9.23-14.93,11.89-24.74l-8.93-3.57-2.75.41h-32.59c.37-1.83.71-3.66,1.02-5.5h50.53v-13.33h-48.78c.23-2.18.43-4.33.61-6.46h44.05v-12.92h-13.04c1.09-1.57,2.22-3.26,3.42-5.08,2.75-4.21,5.36-8.38,7.83-12.51l-15.12-4.4c-.92,2.29-2.02,4.86-3.3,7.7-1.28,2.84-2.63,5.63-4.05,8.38-1.11,2.14-2.22,4.1-3.36,5.91h-16.92l12.37-2.75c-.27-2.11-.76-4.74-1.44-7.9-.69-3.16-1.44-6.12-2.27-8.86l-12.78,2.34c.64,2.75,1.24,5.79,1.79,9.14.53,3.21.88,5.88,1.07,8.04h-15.32l7.24-2.34c-.64-2.01-1.56-4.56-2.75-7.63s-2.34-5.84-3.44-8.31l-12.51,3.44c1.01,2.66,2.04,5.57,3.09,8.73.76,2.3,1.39,4.33,1.89,6.12h-8.42v12.92h16.17c-.16,2.11-.35,4.26-.57,6.46h-18.35v13.33h16.54c-.37,2.06-.76,4.12-1.22,6.18-1.15,5.22-2.82,10.29-5.02,15.19-2.2,4.9-5.11,9.51-8.73,13.81-3.62,4.31-8.13,8.11-13.54,11.41,2.01,1.47,4.03,3.32,6.05,5.57,2.01,2.24,3.57,4.33,4.67,6.25,5.28-3.41,9.82-7.26,13.62-11.53.91.82,1.96,1.99,3.15,3.49,1.19,1.51,2.29,3.05,3.3,4.6,1.01,1.56,1.79,2.93,2.34,4.12,8.8-2.29,16.77-5.48,23.91-9.55.74-.42,1.46-.87,2.18-1.32,8.44,4.85,18.15,8.44,29.15,10.73,1.1-2.02,2.56-4.38,4.4-7.08,1.83-2.7,3.62-4.83,5.36-6.39-8.61-1.37-16.47-3.46-23.57-6.25h.03ZM1408.28,177.58c-4.36-3.41-7.96-7.26-10.85-11.54h24.11c-1.72,3.55-3.8,6.74-6.26,9.55-1.28,1.46-2.65,2.83-4.08,4.14-1-.7-1.99-1.4-2.93-2.14h.01ZM1376.63,195.58c.48-.54.95-1.09,1.41-1.64,4.07-4.95,7.42-10.26,10.03-15.94.17-.38.34-.76.51-1.14,3.09,4.09,6.53,7.83,10.37,11.19-.08.04-.15.08-.23.12-6.5,3.2-13.86,5.68-22.1,7.41h0Z"/></g></svg>